<?xml version="1.0" encoding="UTF-8" standalone="no"?>
<!-- Created with Inkscape (http://www.inkscape.org/) -->

<svg
   xmlns:dc="http://purl.org/dc/elements/1.1/"
   xmlns:cc="http://creativecommons.org/ns#"
   xmlns:rdf="http://www.w3.org/1999/02/22-rdf-syntax-ns#"
   xmlns:svg="http://www.w3.org/2000/svg"
   xmlns="http://www.w3.org/2000/svg"
   xmlns:sodipodi="http://sodipodi.sourceforge.net/DTD/sodipodi-0.dtd"
   xmlns:inkscape="http://www.inkscape.org/namespaces/inkscape"
   width="9.2907553mm"
   height="8.1484613mm"
   viewBox="0 0 32.919999 28.872501"
   id="svg9026"
   version="1.1"
   inkscape:version="0.91 r13725"
   sodipodi:docname="blue-right-arrow-in-a-box.svg">
  <defs
     id="defs9028">
    <clipPath
       clipPathUnits="userSpaceOnUse"
       id="clipPath8916">
      <path
         d="m 0,885.52 1335.15,0 L 1335.15,0 0,0 0,885.52 Z"
         id="path8918"
         inkscape:connector-curvature="0" />
    </clipPath>
  </defs>
  <sodipodi:namedview
     id="base"
     pagecolor="#ffffff"
     bordercolor="#666666"
     borderopacity="1.0"
     inkscape:pageopacity="0.0"
     inkscape:pageshadow="2"
     inkscape:zoom="0.35"
     inkscape:cx="-225.68286"
     inkscape:cy="65.86487"
     inkscape:document-units="px"
     inkscape:current-layer="layer1"
     showgrid="false"
     inkscape:window-width="2160"
     inkscape:window-height="1996"
     inkscape:window-x="-8"
     inkscape:window-y="-8"
     inkscape:window-maximized="1"
     fit-margin-top="0"
     fit-margin-left="0"
     fit-margin-right="0"
     fit-margin-bottom="0" />
  <metadata
     id="metadata9031">
    <rdf:RDF>
      <cc:Work
         rdf:about="">
        <dc:format>image/svg+xml</dc:format>
        <dc:type
           rdf:resource="http://purl.org/dc/dcmitype/StillImage" />
        <dc:title></dc:title>
      </cc:Work>
    </rdf:RDF>
  </metadata>
  <g
     inkscape:label="Layer 1"
     inkscape:groupmode="layer"
     id="layer1"
     transform="translate(-600.68286,-569.35458)">
    <g
       transform="matrix(1.25,0,0,-1.25,36.514107,1537.4407)"
       id="g8912">
      <g
         id="g8914"
         clip-path="url(#clipPath8916)">
        <g
           id="g8920"
           transform="translate(451.835,771.9609)">
          <path
             d="m 0,0 0.5,0 c 0.001,0.833 0.677,1.506 1.508,1.508 l 21.32,0 C 24.159,1.506 24.834,0.833 24.836,0 l 0,-18.082 c -0.002,-0.833 -0.677,-1.506 -1.508,-1.508 l -21.32,0 c -0.831,0.002 -1.507,0.675 -1.508,1.508 L 0.5,0 0,0 l -0.5,0 0,-18.082 c 0.001,-1.386 1.124,-2.507 2.508,-2.508 l 21.32,0 c 1.384,0.001 2.507,1.122 2.508,2.508 l 0,18.082 c -10e-4,1.386 -1.124,2.507 -2.508,2.508 l -21.32,0 C 0.624,2.507 -0.499,1.386 -0.5,0 L 0,0 Z"
             style="fill:#4cc3d5;fill-opacity:1;fill-rule:nonzero;stroke:none"
             id="path8922"
             inkscape:connector-curvature="0" />
        </g>
        <g
           id="g8924"
           transform="translate(463.0422,767.6324)">
          <path
             d="M 0,0 4.592,-4.591 0,-9.184 0.816,-10 6.224,-4.591 0.816,0.816 0,0 Z"
             style="fill:#4cc3d5;fill-opacity:1;fill-rule:nonzero;stroke:none"
             id="path8926"
             inkscape:connector-curvature="0" />
        </g>
      </g>
    </g>
  </g>
</svg>
